# xmcd
# Copyright (C) 1995-1998 Ti Kan
#
# Track frame offsets:
#       150
#       17448
#       35162
#       52838
#       68965
#       89950
#       107881
#       127773
#       144047
#       162247
#
# Disc length: 2413 seconds
#
# Revision: 0
# Processed by: cddbd v1.4PL0 Copyright (c) Steve Scherf et al.
# Submitted via: CD-Transfer v1.0
#
DISCID=80096b0a
DTITLE=Noah Lost The Birdhouse - Dive
DYEAR=2003
DGENRE=
TTITLE0=Polished
TTITLE1=Home
TTITLE2=Hide
TTITLE3=Aint Nobody
TTITLE4=Go
TTITLE5=Pale Moon
TTITLE6=Rain
TTITLE7=Follow Me
TTITLE8=She
TTITLE9=So Long
EXTD=
EXTT0=
EXTT1=
EXTT2=
EXTT3=
EXTT4=
EXTT5=
EXTT6=
EXTT7=
EXTT8=
EXTT9=
PLAYORDER=
